<svg width="263" height="126" viewBox="0 0 263 126" fill="none" xmlns="http://www.w3.org/2000/svg">
<path d="M9 54.5C4.30558 54.5 0.5 58.3056 0.5 63C0.5 67.6944 4.30558 71.5 9 71.5V54.5ZM260.11 69.0104C263.43 65.691 263.43 60.309 260.11 56.9896L206.017 2.89592C202.697 -0.423533 197.315 -0.423533 193.996 2.89592C190.676 6.21538 190.676 11.5973 193.996 14.9167L242.079 63L193.996 111.083C190.676 114.403 190.676 119.785 193.996 123.104C197.315 126.424 202.697 126.424 206.017 123.104L260.11 69.0104ZM9 71.5H254.1V54.5H9V71.5Z" fill="white"/>
</svg>
