<svg xmlns="http://www.w3.org/2000/svg" xmlns:xlink="http://www.w3.org/1999/xlink" width="480" zoomAndPan="magnify" viewBox="0 0 360 359.999987" height="480" preserveAspectRatio="xMidYMid meet" version="1.0"><defs><clipPath id="796b4aaee9"><path d="M 10.089844 10.089844 L 349.910156 10.089844 L 349.910156 349.910156 L 10.089844 349.910156 Z M 10.089844 10.089844 " clip-rule="nonzero"/></clipPath><clipPath id="a8cdf90928"><path d="M 180 10.089844 C 86.160156 10.089844 10.089844 86.160156 10.089844 180 C 10.089844 273.839844 86.160156 349.910156 180 349.910156 C 273.839844 349.910156 349.910156 273.839844 349.910156 180 C 349.910156 86.160156 273.839844 10.089844 180 10.089844 Z M 180 10.089844 " clip-rule="nonzero"/></clipPath><clipPath id="346a0a812a"><path d="M 87 63 L 273.496094 63 L 273.496094 297.640625 L 87 297.640625 Z M 87 63 " clip-rule="nonzero"/></clipPath></defs><g clip-path="url(#796b4aaee9)"><g clip-path="url(#a8cdf90928)"><path fill="#ffffff" d="M 10.089844 10.089844 L 349.910156 10.089844 L 349.910156 349.910156 L 10.089844 349.910156 Z M 10.089844 10.089844 " fill-opacity="1" fill-rule="nonzero"/></g></g><g clip-path="url(#346a0a812a)"><path fill="#013927" d="M 240.460938 290.027344 C 240.371094 290.109375 240.195312 290.269531 240.03125 290.367188 C 239.671875 290.578125 239.195312 290.785156 238.617188 290.992188 C 231.253906 293.625 208.8125 295.554688 194.429688 295.8125 C 173.875 296.179688 131.835938 295.539062 121.796875 293.0625 C 121.3125 292.941406 120.925781 292.820312 120.628906 292.691406 C 120.574219 292.664062 120.515625 292.632812 120.464844 292.601562 C 120.515625 292.558594 120.578125 292.507812 120.636719 292.472656 C 120.910156 292.296875 121.265625 292.117188 121.6875 291.933594 C 127.171875 289.550781 143.179688 286.683594 150.714844 284.523438 C 161.8125 281.34375 169.515625 273.117188 172.445312 264.226562 C 175.308594 255.535156 175.5625 221.390625 175.613281 199.976562 C 175.65625 178.433594 167.71875 165.054688 152.890625 146.980469 C 138.203125 129.082031 99.640625 82.5625 90.21875 71.628906 C 89.582031 70.890625 89.132812 70.230469 88.882812 69.628906 C 88.691406 69.171875 88.621094 68.765625 88.734375 68.402344 C 88.84375 68.039062 89.121094 67.734375 89.535156 67.457031 C 90.070312 67.09375 90.808594 66.789062 91.746094 66.519531 C 101.425781 63.753906 130.464844 65.371094 180.679688 65.117188 C 228.519531 64.878906 259.035156 67.214844 267.851562 66.746094 C 268.863281 66.691406 269.660156 66.730469 270.269531 66.859375 C 270.710938 66.957031 271.03125 67.082031 271.222656 67.300781 C 271.355469 67.453125 271.375 67.652344 271.351562 67.882812 C 271.304688 68.277344 271.125 68.730469 270.847656 69.238281 C 269.535156 71.667969 266.191406 75.074219 262.464844 78.785156 C 259.277344 81.964844 256.632812 83.433594 253.285156 84.296875 C 252.644531 83.441406 251.640625 82.660156 250.179688 81.984375 C 247.464844 80.734375 243.078125 79.800781 236.496094 79.246094 C 219.285156 77.800781 143.546875 77.820312 120.585938 80.824219 C 118.109375 81.148438 116.226562 81.511719 115.074219 81.90625 C 114.46875 82.113281 114.035156 82.347656 113.773438 82.570312 C 113.28125 82.988281 113.175781 83.460938 113.296875 83.90625 C 113.398438 84.296875 113.816406 84.816406 114.785156 85.242188 C 118.714844 86.976562 129.464844 88.253906 143.070312 89.078125 C 174.554688 90.980469 221.429688 90.578125 233.625 88.695312 C 240.574219 87.621094 245.476562 87.257812 249.339844 86.726562 C 250.445312 86.574219 251.464844 86.40625 252.425781 86.207031 C 252.683594 87.054688 252.535156 87.992188 252.117188 89.019531 C 251.316406 91.003906 249.5625 93.261719 247.371094 95.785156 C 239.832031 104.476562 226.046875 121.042969 211.433594 137.023438 C 211.175781 137.300781 210.914062 137.570312 210.65625 137.832031 C 211.488281 135.058594 212.011719 132.15625 212.035156 129.226562 C 212.085938 122.851562 208.210938 117.164062 202.894531 113.8125 C 194.898438 108.777344 183.695312 108.992188 177.804688 119.863281 C 173.855469 127.152344 176.230469 134.242188 181.523438 139.039062 C 187.882812 144.804688 198.5 147.203125 207.148438 142.496094 C 203.273438 151.09375 197.292969 157.425781 197.292969 157.425781 C 196.972656 157.757812 196.992188 158.285156 197.324219 158.601562 C 197.660156 158.917969 198.1875 158.898438 198.5 158.566406 C 198.5 158.566406 205.671875 150.929688 209.574219 140.941406 C 210.65625 140.144531 211.6875 139.214844 212.664062 138.148438 C 227.289062 122.15625 241.078125 105.574219 248.628906 96.878906 C 250.964844 94.1875 252.808594 91.757812 253.664062 89.640625 C 254.21875 88.253906 254.371094 86.976562 254.050781 85.824219 C 257.523438 84.886719 260.300781 83.296875 263.640625 79.964844 C 267.511719 76.113281 270.953125 72.554688 272.316406 70.027344 C 273.199219 68.390625 273.222656 67.070312 272.480469 66.210938 C 272.167969 65.851562 271.710938 65.550781 271.066406 65.351562 C 270.296875 65.109375 269.210938 65.003906 267.761719 65.082031 C 258.957031 65.554688 228.464844 63.214844 180.671875 63.453125 C 130.203125 63.707031 101.019531 62.140625 91.292969 64.917969 C 88.828125 65.621094 87.511719 66.675781 87.136719 67.925781 C 86.765625 69.171875 87.289062 70.78125 88.957031 72.71875 C 98.378906 83.644531 136.921875 130.144531 151.601562 148.039062 C 166.144531 165.757812 173.992188 178.847656 173.945312 199.972656 C 173.898438 221.214844 173.703125 255.085938 170.867188 263.710938 C 168.089844 272.128906 160.769531 279.910156 150.253906 282.925781 C 142.667969 285.097656 126.546875 288.007812 121.027344 290.40625 C 120.046875 290.832031 119.367188 291.269531 119.023438 291.664062 C 118.757812 291.972656 118.644531 292.289062 118.625 292.585938 C 118.609375 292.996094 118.761719 293.425781 119.253906 293.8125 C 119.644531 294.109375 120.335938 294.417969 121.398438 294.679688 C 131.5 297.167969 173.78125 297.847656 194.460938 297.476562 C 209.015625 297.21875 231.730469 295.222656 239.179688 292.5625 C 240.265625 292.171875 241.054688 291.753906 241.511719 291.339844 C 242.007812 290.894531 242.199219 290.40625 242.171875 289.941406 C 242.152344 289.507812 241.925781 289.023438 241.355469 288.582031 C 240.816406 288.15625 239.878906 287.710938 238.476562 287.28125 C 231.417969 285.097656 220.753906 284.992188 210.972656 282.5 C 201.476562 280.078125 192.8125 275.367188 189.386719 263.960938 C 181.027344 236.136719 185.605469 191.46875 187.898438 182.875 C 190.621094 172.667969 192.289062 167.492188 192.179688 165.085938 C 192.140625 164.179688 191.867188 163.574219 191.449219 163.164062 C 190.871094 162.601562 189.90625 162.371094 188.449219 162.5 C 183.734375 162.914062 174.578125 163.648438 174.578125 163.648438 C 174.121094 163.683594 173.777344 164.085938 173.8125 164.542969 C 173.847656 165.003906 174.253906 165.34375 174.710938 165.308594 C 174.710938 165.308594 183.878906 164.574219 188.597656 164.160156 C 189.097656 164.113281 189.511719 164.105469 189.84375 164.171875 C 190.039062 164.207031 190.195312 164.257812 190.300781 164.371094 C 190.421875 164.503906 190.46875 164.695312 190.496094 164.9375 C 190.546875 165.328125 190.519531 165.824219 190.433594 166.429688 C 190.042969 169.203125 188.511719 174.105469 186.285156 182.445312 C 183.96875 191.136719 179.335938 236.304688 187.792969 264.441406 C 191.414062 276.503906 200.519531 281.550781 210.5625 284.109375 C 220.316406 286.597656 230.945312 286.691406 237.984375 288.871094 C 238.46875 289.015625 238.882812 289.167969 239.242188 289.3125 C 239.511719 289.421875 239.742188 289.53125 239.941406 289.640625 C 240.160156 289.761719 240.363281 289.9375 240.460938 290.027344 Z M 208.238281 139.855469 C 209.488281 136.496094 210.34375 132.878906 210.371094 129.210938 C 210.414062 123.414062 206.84375 118.269531 202.003906 115.222656 C 194.761719 110.660156 184.605469 110.808594 179.269531 120.65625 C 175.730469 127.179688 177.90625 133.511719 182.636719 137.800781 C 189 143.570312 199.953125 145.722656 208.238281 139.855469 Z M 251.417969 84.707031 C 250.933594 84.273438 250.292969 83.871094 249.476562 83.496094 C 246.878906 82.296875 242.667969 81.4375 236.359375 80.90625 C 219.195312 79.460938 143.695312 79.480469 120.804688 82.476562 C 118.578125 82.765625 116.859375 83.082031 115.765625 83.433594 C 115.59375 83.488281 115.421875 83.558594 115.273438 83.628906 C 115.332031 83.660156 115.394531 83.691406 115.457031 83.71875 C 119.304688 85.417969 129.84375 86.609375 143.171875 87.414062 C 174.53125 89.308594 221.222656 88.925781 233.371094 87.050781 C 240.332031 85.976562 245.242188 85.609375 249.109375 85.074219 C 249.925781 84.964844 250.691406 84.84375 251.417969 84.707031 Z M 251.417969 84.707031 " fill-opacity="1" fill-rule="evenodd"/></g></svg>